<mxfile host="app.diagrams.net" agent="Mozilla/5.0 (Macintosh; Intel Mac OS X 10_15_7) AppleWebKit/605.1.15 (KHTML, like Gecko) Version/18.1.1 Safari/605.1.15" version="26.0.8">
  <diagram id="C5RBs43oDa-KdzZeNtuy" name="Page-1">
    <mxGraphModel grid="1" page="1" gridSize="10" guides="1" tooltips="1" connect="1" arrows="1" fold="1" pageScale="1" pageWidth="827" pageHeight="1169" math="0" shadow="0">
      <root>
        <mxCell id="WIyWlLk6GJQsqaUBKTNV-0" />
        <mxCell id="WIyWlLk6GJQsqaUBKTNV-1" parent="WIyWlLk6GJQsqaUBKTNV-0" />
        <mxCell id="skzIu8i358GmqLHpjOFL-72" value="" style="rounded=0;whiteSpace=wrap;html=1;" vertex="1" parent="WIyWlLk6GJQsqaUBKTNV-1">
          <mxGeometry x="910" y="300" width="1090" height="450" as="geometry" />
        </mxCell>
        <mxCell id="skzIu8i358GmqLHpjOFL-22" value="Gradio API" style="whiteSpace=wrap;strokeWidth=2;verticalAlign=top;container=0;fontSize=16;" vertex="1" parent="WIyWlLk6GJQsqaUBKTNV-1">
          <mxGeometry x="980" y="390" width="310" height="230" as="geometry" />
        </mxCell>
        <mxCell id="skzIu8i358GmqLHpjOFL-67" style="edgeStyle=orthogonalEdgeStyle;rounded=1;orthogonalLoop=1;jettySize=auto;html=1;entryX=0;entryY=0.5;entryDx=0;entryDy=0;curved=0;" edge="1" parent="WIyWlLk6GJQsqaUBKTNV-1">
          <mxGeometry relative="1" as="geometry">
            <mxPoint x="730" y="408.06500000000005" as="targetPoint" />
          </mxGeometry>
        </mxCell>
        <mxCell id="skzIu8i358GmqLHpjOFL-23" value="Python Function" style="whiteSpace=wrap;strokeWidth=2;verticalAlign=middle;container=0;fontSize=20;" vertex="1" parent="WIyWlLk6GJQsqaUBKTNV-1">
          <mxGeometry x="1017.83" y="454.27" width="222.17" height="115.73" as="geometry" />
        </mxCell>
        <mxCell id="skzIu8i358GmqLHpjOFL-55" style="edgeStyle=orthogonalEdgeStyle;rounded=1;orthogonalLoop=1;jettySize=auto;html=1;entryX=0.97;entryY=0.4;entryDx=0;entryDy=0;exitX=-0.006;exitY=0.287;exitDx=0;exitDy=0;exitPerimeter=0;entryPerimeter=0;curved=0;" edge="1" parent="WIyWlLk6GJQsqaUBKTNV-1" target="skzIu8i358GmqLHpjOFL-54">
          <mxGeometry relative="1" as="geometry">
            <mxPoint x="1819.49" y="465.85099999999994" as="sourcePoint" />
            <mxPoint x="1690.0000000000002" y="490.5014999999997" as="targetPoint" />
            <Array as="points">
              <mxPoint x="1820" y="429" />
              <mxPoint x="1730" y="429" />
              <mxPoint x="1730" y="489" />
              <mxPoint x="1690" y="489" />
            </Array>
          </mxGeometry>
        </mxCell>
        <mxCell id="skzIu8i358GmqLHpjOFL-56" value="&lt;font style=&quot;font-size: 15px;&quot;&gt;request: input data&lt;/font&gt;" style="edgeLabel;html=1;align=center;verticalAlign=middle;resizable=0;points=[];" connectable="0" vertex="1" parent="skzIu8i358GmqLHpjOFL-55">
          <mxGeometry x="0.0092" y="-2" relative="1" as="geometry">
            <mxPoint x="4" y="20" as="offset" />
          </mxGeometry>
        </mxCell>
        <mxCell id="skzIu8i358GmqLHpjOFL-53" value="Mobile App" style="whiteSpace=wrap;strokeWidth=2;fontSize=20;" vertex="1" parent="WIyWlLk6GJQsqaUBKTNV-1">
          <mxGeometry x="1808" y="405.63" width="150" height="213" as="geometry" />
        </mxCell>
        <mxCell id="skzIu8i358GmqLHpjOFL-58" style="edgeStyle=orthogonalEdgeStyle;rounded=1;orthogonalLoop=1;jettySize=auto;html=1;exitX=0.011;exitY=0.181;exitDx=0;exitDy=0;entryX=1.008;entryY=0.329;entryDx=0;entryDy=0;entryPerimeter=0;exitPerimeter=0;curved=0;" edge="1" parent="WIyWlLk6GJQsqaUBKTNV-1" source="skzIu8i358GmqLHpjOFL-54">
          <mxGeometry relative="1" as="geometry">
            <mxPoint x="1527.5199999999995" y="490.525" as="sourcePoint" />
            <mxPoint x="1290" y="490.82000000000005" as="targetPoint" />
            <Array as="points">
              <mxPoint x="1528" y="455" />
              <mxPoint x="1528" y="450" />
              <mxPoint x="1409" y="450" />
              <mxPoint x="1409" y="491" />
            </Array>
          </mxGeometry>
        </mxCell>
        <mxCell id="skzIu8i358GmqLHpjOFL-59" value="&lt;font style=&quot;font-size: 16px;&quot;&gt;formated request&lt;/font&gt;" style="edgeLabel;html=1;align=center;verticalAlign=middle;resizable=0;points=[];" connectable="0" vertex="1" parent="skzIu8i358GmqLHpjOFL-58">
          <mxGeometry x="-0.2131" y="3" relative="1" as="geometry">
            <mxPoint x="-10" y="14" as="offset" />
          </mxGeometry>
        </mxCell>
        <mxCell id="skzIu8i358GmqLHpjOFL-60" value="" style="group" connectable="0" vertex="1" parent="WIyWlLk6GJQsqaUBKTNV-1">
          <mxGeometry x="1530" y="427.75" width="130" height="150.5" as="geometry" />
        </mxCell>
        <mxCell id="skzIu8i358GmqLHpjOFL-54" value="&lt;font style=&quot;font-size: 16px;&quot;&gt;NodeJs Server&lt;/font&gt;" style="rounded=0;whiteSpace=wrap;html=1;verticalAlign=top;" vertex="1" parent="skzIu8i358GmqLHpjOFL-60">
          <mxGeometry width="130" height="150.5" as="geometry" />
        </mxCell>
        <mxCell id="skzIu8i358GmqLHpjOFL-57" value="&lt;font style=&quot;font-size: 20px;&quot;&gt;formating request&lt;/font&gt;" style="rounded=0;whiteSpace=wrap;html=1;" vertex="1" parent="skzIu8i358GmqLHpjOFL-60">
          <mxGeometry x="16" y="51.75" width="100" height="68.25" as="geometry" />
        </mxCell>
        <mxCell id="skzIu8i358GmqLHpjOFL-61" style="edgeStyle=orthogonalEdgeStyle;rounded=1;orthogonalLoop=1;jettySize=auto;html=1;curved=0;" edge="1" parent="WIyWlLk6GJQsqaUBKTNV-1">
          <mxGeometry relative="1" as="geometry">
            <mxPoint x="1290.0000000000005" y="515.5" as="sourcePoint" />
            <mxPoint x="1530" y="560" as="targetPoint" />
            <Array as="points">
              <mxPoint x="1420" y="515" />
              <mxPoint x="1420" y="560" />
              <mxPoint x="1530" y="560" />
            </Array>
          </mxGeometry>
        </mxCell>
        <mxCell id="skzIu8i358GmqLHpjOFL-62" value="&lt;font style=&quot;font-size: 16px;&quot;&gt;response: output data&lt;/font&gt;" style="edgeLabel;html=1;align=center;verticalAlign=middle;resizable=0;points=[];" connectable="0" vertex="1" parent="skzIu8i358GmqLHpjOFL-61">
          <mxGeometry x="-0.0566" relative="1" as="geometry">
            <mxPoint x="10" y="20" as="offset" />
          </mxGeometry>
        </mxCell>
        <mxCell id="skzIu8i358GmqLHpjOFL-63" style="edgeStyle=orthogonalEdgeStyle;rounded=1;orthogonalLoop=1;jettySize=auto;html=1;entryX=0;entryY=0.819;entryDx=0;entryDy=0;entryPerimeter=0;curved=0;" edge="1" parent="WIyWlLk6GJQsqaUBKTNV-1" target="skzIu8i358GmqLHpjOFL-53">
          <mxGeometry relative="1" as="geometry">
            <mxPoint x="1659.9999999999995" y="533" as="sourcePoint" />
            <mxPoint x="1750" y="580" as="targetPoint" />
            <Array as="points">
              <mxPoint x="1730" y="533" />
              <mxPoint x="1730" y="580" />
            </Array>
          </mxGeometry>
        </mxCell>
        <mxCell id="skzIu8i358GmqLHpjOFL-64" value="&lt;font style=&quot;font-size: 15px;&quot;&gt;formated response&lt;/font&gt;" style="edgeLabel;html=1;align=center;verticalAlign=middle;resizable=0;points=[];" connectable="0" vertex="1" parent="skzIu8i358GmqLHpjOFL-63">
          <mxGeometry x="0.0259" y="5" relative="1" as="geometry">
            <mxPoint x="-2" as="offset" />
          </mxGeometry>
        </mxCell>
        <mxCell id="skzIu8i358GmqLHpjOFL-70" style="edgeStyle=orthogonalEdgeStyle;rounded=1;orthogonalLoop=1;jettySize=auto;html=1;exitX=0;exitY=0.5;exitDx=0;exitDy=0;entryX=1;entryY=0.5;entryDx=0;entryDy=0;curved=0;" edge="1" parent="WIyWlLk6GJQsqaUBKTNV-1">
          <mxGeometry relative="1" as="geometry">
            <mxPoint x="630" y="594.9999999999998" as="targetPoint" />
          </mxGeometry>
        </mxCell>
      </root>
    </mxGraphModel>
  </diagram>
</mxfile>
